<svg width="50" height="50" viewBox="0 0 50 50" fill="none" xmlns="http://www.w3.org/2000/svg">
<path fill-rule="evenodd" clip-rule="evenodd" d="M0 25C0 38.8071 11.1929 50 25 50C38.8071 50 50 38.8071 50 25C50 11.1929 38.8071 0 25 0C11.1929 0 0 11.1929 0 25ZM27.3223 31.7127L21.2878 25.6931C21.096 25.5017 21 25.2508 21 24.9999C21 24.7491 21.0958 24.4984 21.2877 24.3069L27.3221 18.2872C27.706 17.9043 28.3284 17.9043 28.7121 18.2872C29.0958 18.67 29.0958 19.2907 28.7121 19.6737L23.3726 24.9999L28.7122 30.3263C29.0959 30.7091 29.0959 31.3299 28.7122 31.7127C28.3285 32.0958 27.7062 32.0958 27.3223 31.7127Z" fill="white"/>
</svg>
