<svg version="1.0" xmlns="http://www.w3.org/2000/svg" width="93.333" height="93.333" viewBox="0 0 70 70"><path d="M27 1.1c0 .6-.4.8-.8.5-1.6-1-11 4.3-15.3 8.6C6.2 14.8 2.7 19 3.5 19c.3 0-.4 2.2-1.5 4.9-1.8 4.6-2.1 13.5-.7 20.6C2.4 50.2 11.6 63 14.6 63c.8 0 1.4.4 1.4.8 0 .9 6.1 4 9.5 4.9 3.8 1.1 16.9 1.2 18.1.2.7-.5 1.6-.9 2-.7 1.3.3 9.2-4 12.3-6.8 3.2-2.8 9.6-11.4 8.5-11.4-.4 0 0-.8.8-1.8.9-.9 1.4-2.5 1.3-3.4-.2-1 0-1.8.4-1.8.5 0 .9-2.7 1-6.1.2-6.2-2.5-17.9-4-17.9-.5 0-.9-.7-.9-1.4C65 15.7 56.8 7 55.1 7c-.7 0-1-.4-.7-.8.2-.4-1-1.4-2.7-2.1-1.8-.7-4-1.7-5-2.2-1-.5-2.2-.7-2.7-.4-.6.4-1 .2-1-.3 0-.4-3.6-.9-8-.9-4.7-.1-8 .3-8 .8z"/></svg>