<svg width="250" height="73" fill="none" xmlns="http://www.w3.org/2000/svg"><rect x="1" y="1" width="248" height="70.421" rx="9" stroke="#fff" stroke-width="2"/><g clip-path="url(#clip0)" fill-rule="evenodd" clip-rule="evenodd" fill="#fff"><path d="M57.17 34.707c-.052-5.935 4.849-8.823 5.073-8.958-2.776-4.056-7.078-4.61-8.591-4.655-3.613-.38-7.118 2.167-8.959 2.167-1.878 0-4.713-2.13-7.768-2.067-3.93.06-7.609 2.342-9.626 5.884-4.162 7.226-1.058 17.841 2.93 23.68 1.996 2.862 4.327 6.054 7.378 5.94 2.986-.12 4.1-1.905 7.703-1.905 3.57 0 4.617 1.906 7.729 1.835 3.204-.05 5.22-2.874 7.146-5.759 2.306-3.276 3.232-6.506 3.269-6.671-.074-.026-6.22-2.38-6.284-9.491zm-5.878-17.455c1.605-2.012 2.704-4.75 2.399-7.529-2.323.103-5.23 1.612-6.904 3.58-1.481 1.735-2.803 4.578-2.461 7.251 2.61.195 5.29-1.32 6.966-3.302zm49.118 39.036h-4.172l-2.285-7.197h-7.944l-2.177 7.197H79.77l7.872-24.506h4.861l7.907 24.506zM93.264 46.07l-2.067-6.4c-.218-.653-.63-2.192-1.233-4.616h-.074a190.7 190.7 0 01-1.16 4.617l-2.032 6.4h6.566zm27.35 1.166c0 3.005-.813 5.38-2.443 7.125-1.459 1.552-3.272 2.327-5.434 2.327-2.335 0-4.014-.834-5.034-2.506v9.271h-3.916V44.426c0-1.888-.05-3.823-.145-5.808h3.444l.219 2.8h.073c1.306-2.11 3.289-3.165 5.949-3.165 2.079 0 3.816.823 5.205 2.472 1.386 1.651 2.082 3.82 2.082 6.511zm-3.989.143c0-1.72-.387-3.137-1.162-4.255-.846-1.162-1.984-1.744-3.409-1.744-.967 0-1.844.323-2.629.963-.787.645-1.301 1.486-1.542 2.528-.121.486-.182.883-.182 1.195v2.948c0 1.285.394 2.368 1.18 3.256.786.884 1.808 1.328 3.064 1.328 1.476 0 2.624-.572 3.444-1.71.824-1.14 1.236-2.641 1.236-4.509zm24.266-.143c0 3.005-.814 5.38-2.444 7.125-1.46 1.552-3.271 2.327-5.436 2.327-2.334 0-4.014-.834-5.033-2.506v9.271h-3.917V44.426c0-1.888-.05-3.823-.145-5.808h3.444l.218 2.8h.074c1.304-2.11 3.287-3.165 5.949-3.165 2.078 0 3.814.823 5.206 2.472 1.386 1.651 2.084 3.82 2.084 6.511zm-3.993.143c0-1.72-.388-3.137-1.162-4.255-.847-1.162-1.981-1.744-3.407-1.744-.966 0-1.844.323-2.632.963-.787.645-1.299 1.486-1.539 2.528-.12.486-.184.883-.184 1.195v2.948c0 1.285.395 2.368 1.177 3.256.787.883 1.808 1.328 3.068 1.328 1.478 0 2.625-.572 3.445-1.71.822-1.14 1.234-2.641 1.234-4.509zm26.662 2.035c0 2.087-.728 3.783-2.173 5.092-1.591 1.43-3.813 2.145-6.66 2.145-2.63 0-4.74-.508-6.33-1.527l.905-3.272c1.718 1.02 3.605 1.53 5.659 1.53 1.476 0 2.624-.336 3.444-1.002.821-.666 1.236-1.557 1.236-2.669 0-.997-.343-1.83-1.017-2.51-.678-.678-1.798-1.31-3.373-1.89-4.28-1.6-6.423-3.94-6.423-7.02 0-2.01.757-3.656 2.268-4.943 1.509-1.286 3.512-1.929 6.003-1.929 2.225 0 4.079.39 5.55 1.164l-.983 3.2c-1.385-.751-2.948-1.126-4.698-1.126-1.38 0-2.465.34-3.24 1.018-.652.606-.983 1.344-.983 2.22 0 .967.376 1.77 1.126 2.4.65.58 1.837 1.212 3.553 1.89 2.105.85 3.652 1.841 4.642 2.98.998 1.137 1.494 2.556 1.494 4.249zm12.983-7.85h-4.317v8.58c0 2.181.76 3.27 2.285 3.27.7 0 1.28-.059 1.739-.182l.109 2.981c-.772.289-1.787.435-3.046.435-1.547 0-2.756-.474-3.628-1.42-.869-.946-1.306-2.533-1.306-4.764v-8.908h-2.572V38.61h2.572v-3.235l3.847-1.164v4.399h4.317v2.954zm19.44 5.743c0 2.716-.775 4.947-2.322 6.69-1.618 1.796-3.772 2.69-6.456 2.69-2.59 0-4.65-.859-6.185-2.577-1.536-1.722-2.304-3.892-2.304-6.508 0-2.738.793-4.98 2.376-6.725 1.585-1.746 3.72-2.618 6.404-2.618 2.587 0 4.663.861 6.237 2.582 1.503 1.668 2.25 3.822 2.25 6.466zm-4.06.091c0-1.62-.349-3.007-1.049-4.17-.821-1.402-1.996-2.104-3.52-2.104-1.569 0-2.772.702-3.591 2.105-.702 1.162-1.051 2.574-1.051 4.242 0 1.62.349 3.013 1.051 4.172.846 1.403 2.027 2.104 3.558 2.104 1.498 0 2.671-.716 3.519-2.14.721-1.19 1.083-2.587 1.083-4.209zm16.797-5.328a6.792 6.792 0 00-1.236-.108c-1.376 0-2.443.52-3.192 1.565-.651.92-.977 2.085-.977 3.49v9.271h-3.917V44.183c0-2.035-.039-3.892-.114-5.564h3.412l.143 3.382h.109c.415-1.162 1.065-2.1 1.958-2.801.872-.632 1.815-.947 2.831-.947.362 0 .689.026.979.072l.004 3.746zm17.516 4.547c0 .703-.046 1.297-.143 1.78h-11.75c.044 1.746.614 3.083 1.705 4.004.989.822 2.27 1.234 3.843 1.234 1.739 0 3.327-.276 4.755-.834l.613 2.723c-1.668.73-3.638 1.093-5.91 1.093-2.734 0-4.88-.807-6.441-2.417-1.558-1.61-2.338-3.776-2.338-6.49 0-2.662.725-4.88 2.178-6.65 1.522-1.89 3.577-2.834 6.164-2.834 2.541 0 4.464.944 5.77 2.834 1.034 1.496 1.554 3.353 1.554 5.556zm-3.735-1.018c.028-1.166-.23-2.17-.76-3.019-.678-1.094-1.721-1.638-3.12-1.638-1.28 0-2.323.531-3.117 1.6-.652.849-1.041 1.869-1.159 3.053l8.156.004zM81.577 10.086h4.686c.949 0 1.78.108 2.495.323.714.216 1.333.503 1.858.864.525.363.962.778 1.31 1.248.348.468.622.95.825 1.444.202.494.347.989.436 1.483.088.494.133.95.133 1.37 0 .862-.159 1.695-.474 2.5a6.337 6.337 0 01-1.404 2.149c-.62.627-1.389 1.13-2.305 1.511-.917.38-1.976.57-3.177.57h-4.383V10.087zM83.4 21.837h2.295c.77 0 1.502-.104 2.19-.313a5.315 5.315 0 001.813-.942c.518-.418.93-.94 1.233-1.568.303-.628.455-1.36.455-2.197 0-.43-.07-.935-.209-1.511a4.534 4.534 0 00-.787-1.645c-.386-.52-.92-.961-1.603-1.322-.683-.362-1.568-.542-2.656-.542H83.4v10.04zm11.285-2.795a4.6 4.6 0 01.37-1.845 4.736 4.736 0 012.533-2.52 4.747 4.747 0 011.878-.37c.67 0 1.296.124 1.877.371a4.734 4.734 0 012.533 2.52c.247.57.371 1.185.371 1.844 0 .66-.124 1.277-.371 1.854a4.665 4.665 0 01-2.533 2.51 4.745 4.745 0 01-1.877.37 4.807 4.807 0 01-3.396-1.378 4.67 4.67 0 01-1.015-1.502 4.67 4.67 0 01-.37-1.854zm1.822 0c0 .456.069.878.209 1.265.138.387.334.716.588.988.252.273.562.488.93.647a3.08 3.08 0 001.232.238c.456 0 .866-.08 1.232-.238a2.73 2.73 0 00.931-.647c.252-.272.448-.6.587-.988.14-.387.209-.809.209-1.265a3.69 3.69 0 00-.209-1.265 2.883 2.883 0 00-.587-.989 2.738 2.738 0 00-.931-.646 3.059 3.059 0 00-1.232-.238c-.456 0-.866.08-1.233.238a2.723 2.723 0 00-.93.646 2.853 2.853 0 00-.587.989 3.69 3.69 0 00-.209 1.265zm8.423-4.507h1.916l2.02 6.732h.038l2.153-6.732h1.821l2.277 6.732h.038l1.916-6.732h1.821l-2.903 9.014h-1.726l-2.381-6.732h-.039l-2.171 6.732h-1.821l-2.959-9.014zm15.099 0h1.708v1.388h.037c.216-.482.589-.87 1.12-1.169.532-.298 1.145-.447 1.84-.447.43 0 .844.066 1.242.2.399.133.747.34 1.044.618.297.278.533.637.711 1.074.178.438.267.953.267 1.55v5.8h-1.709v-5.325c0-.418-.057-.776-.17-1.075a1.947 1.947 0 00-.456-.721 1.705 1.705 0 00-.654-.4 2.414 2.414 0 00-.768-.124 2.78 2.78 0 00-.986.172c-.304.115-.57.294-.798.54a2.579 2.579 0 00-.531.943c-.126.38-.189.83-.189 1.35v4.64h-1.708v-9.014zm10.302-5.362h1.707v14.376h-1.707V9.173zm3.604 9.869c0-.659.123-1.274.37-1.845a4.751 4.751 0 014.41-2.89 4.755 4.755 0 014.411 2.89c.247.57.369 1.186.369 1.845a4.68 4.68 0 01-1.384 3.357 4.824 4.824 0 01-3.396 1.378 4.824 4.824 0 01-3.395-1.378 4.665 4.665 0 01-1.015-1.503 4.663 4.663 0 01-.37-1.854zm1.821 0c0 .456.069.878.208 1.265.14.387.336.716.588.988.254.273.563.488.931.647a3.08 3.08 0 001.232.238c.455 0 .867-.08 1.234-.238a2.73 2.73 0 00.929-.647c.253-.272.449-.6.589-.988.138-.387.208-.809.208-1.265 0-.457-.07-.878-.208-1.265a2.887 2.887 0 00-.589-.989 2.74 2.74 0 00-.929-.646 3.074 3.074 0 00-1.234-.238c-.455 0-.866.08-1.232.238a2.738 2.738 0 00-.931.646 2.9 2.9 0 00-.588.989 3.719 3.719 0 00-.208 1.265zm9.542-3.404a4.717 4.717 0 011.669-.998 5.686 5.686 0 011.897-.333c.657 0 1.224.083 1.698.247.474.165.863.386 1.167.666.303.279.528.598.673.96.145.36.218.74.218 1.131v4.602c0 .317.006.609.018.875.013.266.033.52.058.76h-1.517a16.071 16.071 0 01-.057-1.368h-.038c-.38.583-.829.995-1.347 1.236-.518.24-1.119.36-1.803.36-.417 0-.815-.056-1.195-.17a2.896 2.896 0 01-.996-.514 2.452 2.452 0 01-.674-.846c-.164-.336-.246-.725-.246-1.17 0-.583.129-1.07.389-1.464a2.95 2.95 0 011.062-.96c.45-.248.975-.424 1.576-.533.6-.107 1.242-.161 1.925-.161h1.252v-.38c0-.229-.045-.457-.134-.685a1.843 1.843 0 00-.397-.618 1.92 1.92 0 00-.664-.437 2.514 2.514 0 00-.949-.162 3.58 3.58 0 00-.864.094 3.833 3.833 0 00-.672.24 2.964 2.964 0 00-.551.332 38.62 38.62 0 01-.474.361l-1.024-1.065zm4.818 3.575c-.405 0-.819.023-1.243.066-.423.045-.81.13-1.156.257a2.244 2.244 0 00-.855.533c-.22.228-.331.52-.331.874 0 .52.174.894.522 1.122.346.229.818.343 1.413.343.468 0 .865-.08 1.195-.239a2.247 2.247 0 001.232-1.464c.089-.309.134-.617.134-.921v-.571h-.911zm13.622 4.336h-1.707v-1.293h-.038a3.267 3.267 0 01-1.357 1.122 4.188 4.188 0 01-1.774.399 4.771 4.771 0 01-1.888-.361 4.141 4.141 0 01-1.441-1.008c-.4-.43-.705-.932-.921-1.503a5.24 5.24 0 01-.321-1.863c0-.672.106-1.296.321-1.873a4.426 4.426 0 01.921-1.503 4.223 4.223 0 011.441-.998 4.771 4.771 0 011.888-.36c.644 0 1.253.135 1.821.408.569.273 1.005.643 1.31 1.112h.038V9.173h1.707v14.376zm-4.668-1.37c.455 0 .867-.079 1.233-.237.367-.159.677-.374.93-.647.253-.271.449-.6.589-.988.138-.387.209-.809.209-1.265 0-.456-.071-.878-.209-1.265a2.886 2.886 0 00-.589-.989 2.734 2.734 0 00-.93-.645 3.064 3.064 0 00-1.233-.239c-.455 0-.865.08-1.232.239a2.724 2.724 0 00-.93.645 2.886 2.886 0 00-.589.989 3.718 3.718 0 00-.208 1.265c0 .456.069.878.208 1.265.14.387.336.717.589.988.253.273.562.488.93.647.367.158.777.238 1.232.238zm11.326-3.137c0-.659.123-1.274.37-1.845.247-.57.585-1.07 1.014-1.502a4.767 4.767 0 013.396-1.388 4.756 4.756 0 013.396 1.388c.43.431.768.932 1.015 1.502.247.57.37 1.186.37 1.845a4.68 4.68 0 01-1.385 3.357 4.828 4.828 0 01-3.396 1.378 4.74 4.74 0 01-1.878-.372 4.84 4.84 0 01-1.518-1.006 4.694 4.694 0 01-1.384-3.357zm1.821 0c0 .456.069.878.208 1.265.14.387.336.716.588.988.254.273.563.488.93.647.367.158.778.238 1.233.238.455 0 .867-.08 1.233-.238.367-.159.677-.374.93-.647.253-.272.449-.6.589-.988.137-.387.208-.809.208-1.265 0-.457-.071-.878-.208-1.265a2.887 2.887 0 00-.589-.989 2.734 2.734 0 00-.93-.646 3.066 3.066 0 00-1.233-.238c-.455 0-.866.08-1.233.238a2.744 2.744 0 00-.93.646 2.9 2.9 0 00-.588.989 3.719 3.719 0 00-.208 1.265zm9.503-4.507h1.707v1.388h.038c.215-.482.588-.87 1.12-1.169.531-.298 1.144-.447 1.839-.447.431 0 .845.066 1.242.2.4.133.747.34 1.045.618.296.278.533.637.711 1.074.177.438.266.953.266 1.55v5.8h-1.708v-5.325c0-.418-.057-.776-.171-1.075a1.945 1.945 0 00-.455-.721 1.705 1.705 0 00-.654-.4 2.416 2.416 0 00-.769-.124c-.353 0-.682.057-.985.172a2.068 2.068 0 00-.798.54 2.549 2.549 0 00-.53.943c-.127.38-.191.83-.191 1.35v4.64h-1.707v-9.014zm19.882 1.483h-2.449v4.089c0 .253.006.503.019.751s.06.469.142.666c.084.196.209.354.381.474.17.121.42.181.748.181.203 0 .412-.019.626-.057.215-.038.411-.107.589-.209v1.56c-.202.114-.465.193-.787.237a5.798 5.798 0 01-.75.067c-.657 0-1.166-.092-1.527-.277-.36-.183-.626-.42-.796-.712a2.313 2.313 0 01-.304-.979 12.422 12.422 0 01-.048-1.094v-4.697h-1.972v-1.483h1.972v-2.529h1.707v2.53h2.449v1.482zm1.821-6.845h1.707v6.75h.038c.215-.482.588-.87 1.119-1.169.532-.298 1.145-.447 1.84-.447.43 0 .844.066 1.243.2.398.133.746.34 1.044.618.296.278.533.637.711 1.074.177.438.265.953.265 1.55v5.8h-1.708v-5.325c0-.418-.056-.776-.171-1.075a1.919 1.919 0 00-.455-.721 1.703 1.703 0 00-.654-.4 2.416 2.416 0 00-.769-.124c-.353 0-.682.057-.985.172a2.074 2.074 0 00-.798.541 2.563 2.563 0 00-.53.942c-.127.38-.19.83-.19 1.35v4.64h-1.707V9.173zM214.88 19.67c0 .393.086.75.256 1.073.171.325.396.6.673.828.279.228.601.406.969.532.366.127.746.19 1.137.19.532 0 .994-.124 1.385-.37a4.435 4.435 0 001.081-.98l1.29.99c-.948 1.228-2.275 1.844-3.983 1.844-.708 0-1.35-.121-1.926-.361a4.165 4.165 0 01-1.46-1 4.413 4.413 0 01-.921-1.502 5.314 5.314 0 01-.322-1.872c0-.672.117-1.296.351-1.873a4.65 4.65 0 01.967-1.503 4.434 4.434 0 011.47-.998 4.733 4.733 0 011.859-.361c.797 0 1.471.14 2.021.418.55.28 1.003.644 1.356 1.093.355.452.61.958.769 1.522a6.35 6.35 0 01.237 1.72v.61h-7.209zm5.388-1.37a3.643 3.643 0 00-.18-1.046 2.311 2.311 0 00-.484-.826 2.233 2.233 0 00-.806-.552 2.928 2.928 0 00-1.129-.2 2.78 2.78 0 00-2.03.856c-.24.253-.428.535-.56.846a2.346 2.346 0 00-.199.922h5.388z"/></g><defs><clipPath id="clip0"><path fill="#fff" d="M25.233 9.141h201.389v54.563H25.233z"/></clipPath></defs></svg>