<svg width="50" height="50" fill="none" xmlns="http://www.w3.org/2000/svg"><path d="M35.998 29.745a18.638 18.638 0 01-1.683 3.098c-1.071 1.645-2.601 3.711-4.514 3.711-1.683 0-2.104-1.11-4.4-1.071-2.295 0-2.754 1.11-4.437 1.071-1.875 0-3.328-1.874-4.4-3.52-3.022-4.59-3.328-10.022-1.492-12.853 1.148-1.913 3.176-3.099 5.394-3.214 1.99 0 3.252 1.11 4.935 1.11 1.684 0 2.602-1.11 4.897-1.11a6.5 6.5 0 014.935 2.602 5.6 5.6 0 00-2.142 7.65c.688 1.187 1.683 2.067 2.907 2.526z" fill="#fff"/><path d="M28.578 15.093a5.665 5.665 0 001.262-4.17c-1.53.191-2.945.918-3.94 2.104a5.27 5.27 0 00-1.3 4.055c1.568 0 3.021-.765 3.978-1.99z" fill="#fff"/><rect x=".5" y=".5" width="49" height="49" rx="5.5" stroke="#fff"/></svg>