<svg width="250" height="73" fill="none" xmlns="http://www.w3.org/2000/svg"><g clip-path="url(#clip0)" fill-rule="evenodd" clip-rule="evenodd"><path d="M165.353 51.24l-1.467 1.383c-.338.185-.675.402-1.012.555-1.02.462-2.056.579-2.977.579-.981 0-2.516-.063-4.083-1.196-2.178-1.533-3.13-4.165-3.13-6.461 0-4.752 3.872-7.082 7.03-7.082 1.104 0 2.239.275 3.16.858 1.532 1.013 1.929 2.329 2.149 3.033l-7.213 2.912-2.361.183c.764 3.896 3.403 6.161 6.319 6.161 1.455 0 2.537-.473 3.529-.964 0 0 .198-.104.056.038zm-4.351-7.75c.586-.213.891-.397.891-.824 0-1.223-1.387-2.637-3.041-2.637-1.226 0-3.527.953-3.527 4.264 0 .517.062 1.068.093 1.618l5.584-2.421z" fill="#fff"/><path d="M150.274 51.002c0 1.192.214 1.376 1.22 1.47.526.062 1.05.09 1.568.15l-1.134.676h-5.407c.709-.92.831-1.011.831-1.624v-.684l-.012-18.221h-2.386l2.297-1.106h4.387c-.95.55-1.234.885-1.357 1.957l-.007 17.382z" fill="#fff"/><path d="M141.889 40.522c.704.578 2.175 1.805 2.175 4.134 0 2.27-1.281 3.34-2.573 4.352-.396.4-.86.832-.86 1.5 0 .679.464 1.046.798 1.32l1.108.856c1.347 1.136 2.575 2.178 2.575 4.293 0 2.884-2.792 5.79-8.07 5.79-4.445 0-6.594-2.114-6.594-4.383 0-1.104.549-2.666 2.364-3.737 1.902-1.162 4.479-1.317 5.858-1.408-.43-.555-.922-1.137-.922-2.087 0-.52.157-.83.308-1.195-.336.032-.674.065-.982.065-3.253 0-5.093-2.425-5.093-4.815 0-1.41.644-2.973 1.965-4.107 1.749-1.438 3.835-1.687 5.492-1.687h6.323l-1.966 1.109h-1.906zm-2.174 13.605c-.251-.033-.402-.033-.705-.033-.279 0-1.936.06-3.219.49-.68.25-2.643.982-2.643 3.16 0 2.172 2.12 3.738 5.398 3.738 2.945 0 4.509-1.41 4.509-3.31 0-1.562-1.012-2.387-3.34-4.045zm.883-5.823c.709-.707.77-1.685.77-2.24 0-2.203-1.315-5.638-3.866-5.638-.794 0-1.657.4-2.146 1.017-.519.638-.674 1.466-.674 2.263 0 2.052 1.198 5.456 3.834 5.456.768 0 1.596-.373 2.082-.858zm-17.728 5.39c-4.878 0-7.486-3.794-7.486-7.23 0-4.012 3.28-7.446 7.945-7.446 4.51 0 7.335 3.527 7.335 7.23 0 3.618-2.792 7.446-7.794 7.446zm3.835-2.48c.742-.982.922-2.205.922-3.399 0-2.699-1.288-7.847-5.091-7.847a4.28 4.28 0 00-2.766 1.04c-1.198 1.073-1.412 2.42-1.412 3.743 0 3.028 1.498 8.022 5.216 8.022 1.201 0 2.425-.58 3.131-1.56zm-20.162 2.48c-4.878 0-7.483-3.794-7.483-7.23 0-4.012 3.281-7.446 7.945-7.446 4.508 0 7.329 3.527 7.329 7.23 0 3.618-2.788 7.446-7.791 7.446zm3.836-2.48c.736-.982.921-2.205.921-3.399 0-2.699-1.292-7.847-5.092-7.847a4.265 4.265 0 00-2.761 1.04c-1.2 1.073-1.412 2.42-1.412 3.743 0 3.028 1.504 8.022 5.216 8.022 1.197 0 2.42-.58 3.128-1.56zM97.11 52.63l-4.112.94c-1.668.263-3.163.494-4.749.494-7.933 0-10.954-5.834-10.954-10.399 0-5.576 4.282-10.745 11.617-10.745 1.55 0 3.045.228 4.405.598 2.155.606 3.163 1.35 3.794 1.788l-2.39 2.267-1.008.225.719-1.144c-.973-.95-2.762-2.7-6.154-2.7-4.538 0-7.962 3.445-7.962 8.475 0 5.404 3.91 10.486 10.177 10.486 1.842 0 2.79-.37 3.65-.715v-4.63l-4.341.232 2.302-1.235h6.094l-.745.717c-.202.171-.228.228-.285.457-.03.262-.057 1.094-.057 1.387v3.503zm77.087-1.26v7.806h-1.552V39.313h1.552v2.261c1.01-1.46 2.858-2.62 5.004-2.62 3.847 0 6.439 2.916 6.439 7.532 0 4.586-2.592 7.564-6.439 7.564-2.027 0-3.841-1.043-5.004-2.68zm9.776-4.884c0-3.479-1.815-6.132-5.034-6.132-2 0-3.911 1.57-4.742 2.938v6.359c.831 1.37 2.742 2.997 4.742 2.997 3.219 0 5.034-2.676 5.034-6.162zm3.787-12.658h1.551v19.864h-1.551V33.828zm18.964 24.064c.331.148.898.24 1.258.24.949 0 1.609-.389 2.203-1.76l1.132-2.56-6.114-14.5h1.732l5.244 12.565 5.193-12.564h1.755l-7.456 17.541c-.773 1.808-1.99 2.677-3.663 2.677-.502 0-1.163-.09-1.55-.209l.266-1.43zm-4.532-4.243a23.754 23.754 0 01-.239-1.306 8.44 8.44 0 01-.075-1.12c-.533.78-1.286 1.43-2.248 1.941-.964.515-1.88.767-3.136.767-1.511 0-2.685-.37-3.522-1.125-.836-.753-1.255-1.773-1.255-3.064 0-1.288.608-2.335 1.821-3.135 1.213-.804 2.781-1.203 4.721-1.203h3.619v-1.787c0-1.029-.352-1.837-1.052-2.425-.704-.587-1.691-.884-2.972-.884-1.17 0-2.118.271-2.841.8-.717.54-1.077 1.208-1.077 2.013h-1.588l-.033-.077c-.058-1.085.44-2.039 1.497-2.86 1.052-.823 2.432-1.236 4.129-1.236 1.692 0 3.061.407 4.094 1.218 1.03.804 1.548 1.966 1.548 3.484v7.094c0 .509.023 1.001.088 1.48.065.481.169.96.308 1.425h-1.787zm-5.508-1.13c1.318 0 2.266-.294 3.235-.876.961-.579 1.615-1.334 1.959-2.247v-2.761h-3.636c-1.39 0-2.54.306-3.444.926-.907.618-1.366 1.366-1.366 2.235 0 .819.291 1.475.869 1.972.581.502 1.373.751 2.383.751z" fill="#fff"/><path d="M46.232 34.893L26.244 14.927a1.77 1.77 0 01.522-.075c.402 0 .851.122 1.325.382l24.4 13.403-6.26 6.256zm0 0l6.261-6.256 8.36 4.593c1.69.928 1.69 2.442 0 3.374l-8.329 4.575-6.292-6.286zM26.243 14.927c-.742.233-1.223.984-1.223 2.12l.005 35.74c0 1.123.466 1.863 1.187 2.109.172.058.358.088.555.088.401 0 .85-.123 1.323-.383L52.522 41.18l-6.29-6.283-19.988-19.969z" fill="#FBFBFB"/><path d="M78.71 11.08h4.57c.925 0 1.736.105 2.433.314.696.21 1.301.49 1.812.84a5.36 5.36 0 011.278 1.213c.339.455.606.923.804 1.404a7.53 7.53 0 01.555 2.772c0 .839-.155 1.649-.462 2.431a6.159 6.159 0 01-1.37 2.089c-.604.61-1.353 1.099-2.247 1.469-.895.37-1.928.554-3.1.554H78.71V11.08zm1.776 11.423h2.239c.751 0 1.464-.102 2.137-.305a5.179 5.179 0 001.766-.915 4.384 4.384 0 001.203-1.525c.296-.61.444-1.322.444-2.135 0-.418-.068-.909-.204-1.469a4.403 4.403 0 00-.768-1.6c-.376-.504-.897-.933-1.563-1.283-.666-.352-1.53-.527-2.59-.527h-2.664v9.759zm11.008-2.717c0-.64.12-1.239.36-1.793a4.618 4.618 0 012.47-2.448 4.643 4.643 0 011.832-.362 4.65 4.65 0 013.312 1.35c.419.419.749.905.99 1.46.24.554.361 1.153.361 1.793a4.561 4.561 0 01-1.35 3.263 4.712 4.712 0 01-3.313 1.339 4.69 4.69 0 01-3.312-1.34 4.542 4.542 0 01-1.35-3.262zm1.776 0c0 .443.068.853.204 1.23.135.376.326.696.573.96.247.265.549.474.907.629.357.154.759.23 1.203.23a3.01 3.01 0 001.202-.23 2.66 2.66 0 00.907-.63c.246-.263.437-.583.573-.96.136-.376.204-.786.204-1.23 0-.443-.068-.852-.204-1.229a2.804 2.804 0 00-.573-.961 2.676 2.676 0 00-.907-.627 3.002 3.002 0 00-1.203-.232 3 3 0 00-1.202.232c-.358.153-.66.363-.907.627a2.776 2.776 0 00-.573.961 3.586 3.586 0 00-.204 1.23zm8.215-4.381h1.869l1.969 6.543h.037l2.101-6.543h1.776l2.22 6.543h.037l1.869-6.543h1.776l-2.831 8.761h-1.683l-2.323-6.543h-.038l-2.117 6.543h-1.776l-2.886-8.76zm14.727 0h1.664v1.35h.038c.21-.47.573-.847 1.092-1.137.518-.29 1.116-.435 1.794-.435.419 0 .823.065 1.212.195.388.13.728.33 1.018.6.289.27.52.62.693 1.044.173.426.26.927.26 1.507v5.637h-1.666v-5.175c0-.407-.056-.755-.167-1.045a1.878 1.878 0 00-.444-.701 1.66 1.66 0 00-.638-.39 2.35 2.35 0 00-.749-.12 2.72 2.72 0 00-.962.167 2.017 2.017 0 00-.778.527c-.221.24-.394.545-.518.915-.122.37-.185.807-.185 1.312v4.51h-1.664v-8.76zm10.047-5.212h1.665v13.973h-1.665V10.193zm3.515 9.593c0-.64.119-1.239.36-1.793a4.69 4.69 0 01.99-1.46 4.65 4.65 0 013.311-1.35 4.656 4.656 0 013.313 1.35c.419.419.749.905.989 1.46a4.45 4.45 0 01.36 1.793 4.539 4.539 0 01-1.349 3.263c-.42.412-.914.738-1.48.978a4.661 4.661 0 01-1.833.361 4.711 4.711 0 01-3.311-1.34 4.557 4.557 0 01-1.35-3.262zm1.776 0c0 .443.067.853.202 1.23.137.376.328.696.574.96.247.265.549.474.907.629.358.154.758.23 1.202.23a3.02 3.02 0 001.204-.23 2.65 2.65 0 00.905-.63c.248-.263.439-.583.575-.96.135-.376.203-.786.203-1.23 0-.443-.068-.852-.203-1.229a2.777 2.777 0 00-.575-.961 2.66 2.66 0 00-.905-.627 3.008 3.008 0 00-1.204-.232c-.444 0-.844.077-1.202.232-.358.153-.66.363-.907.627a2.822 2.822 0 00-.574.961 3.617 3.617 0 00-.202 1.23zm9.305-3.309a4.616 4.616 0 011.628-.97 5.57 5.57 0 011.85-.324c.642 0 1.194.081 1.657.24.461.161.841.376 1.138.647.295.272.514.582.655.934.143.35.214.718.214 1.1v4.473c0 .308.006.591.018.85.012.259.031.506.056.74h-1.48a16.005 16.005 0 01-.056-1.332h-.037c-.37.567-.808.968-1.314 1.202-.505.233-1.091.351-1.757.351-.407 0-.796-.056-1.166-.166a2.845 2.845 0 01-.972-.5 2.393 2.393 0 01-.656-.822c-.16-.326-.239-.705-.239-1.137 0-.567.124-1.04.377-1.423a2.88 2.88 0 011.037-.934c.438-.24.95-.411 1.536-.517a10.726 10.726 0 011.877-.157h1.222v-.37a1.81 1.81 0 00-.13-.665 1.805 1.805 0 00-.388-.601 1.864 1.864 0 00-.648-.424 2.456 2.456 0 00-.925-.158c-.32 0-.601.031-.841.092a3.784 3.784 0 00-.658.232 2.91 2.91 0 00-.536.323c-.161.124-.315.24-.462.351l-1-1.035zm4.699 3.475a12 12 0 00-1.212.064 4.735 4.735 0 00-1.127.25 2.17 2.17 0 00-.833.518c-.216.222-.323.506-.323.85 0 .506.168.869.508 1.09.339.222.798.333 1.378.333.457 0 .844-.077 1.165-.231a2.2 2.2 0 00.778-.6c.196-.247.339-.521.425-.823.087-.301.13-.6.13-.896v-.555h-.889zm13.285 4.214h-1.665V22.91h-.037a3.167 3.167 0 01-1.322 1.09 4.097 4.097 0 01-1.731.389 4.66 4.66 0 01-1.841-.351 4.058 4.058 0 01-1.406-.98 4.451 4.451 0 01-.898-1.46 5.093 5.093 0 01-.313-1.811c0-.653.104-1.26.313-1.82a4.34 4.34 0 01.898-1.462 4.14 4.14 0 011.406-.97 4.66 4.66 0 011.841-.35c.63 0 1.222.132 1.776.397.556.265.98.625 1.277 1.081h.037v-6.47h1.665v13.974zm-4.552-1.33a3.02 3.02 0 001.203-.231c.358-.155.66-.364.906-.63a2.74 2.74 0 00.575-.96c.135-.376.203-.786.203-1.23 0-.443-.068-.852-.203-1.229a2.793 2.793 0 00-.575-.961 2.655 2.655 0 00-.906-.627 3.003 3.003 0 00-1.203-.232 2.99 2.99 0 00-1.201.232 2.663 2.663 0 00-.908.627 2.822 2.822 0 00-.574.961 3.617 3.617 0 00-.203 1.23c0 .443.068.853.203 1.23.137.376.328.696.574.96.247.265.549.474.908.629.357.154.757.23 1.201.23zm11.046-3.05c0-.64.12-1.239.361-1.793a4.633 4.633 0 012.469-2.448 4.654 4.654 0 011.832-.362 4.656 4.656 0 013.312 1.35c.419.419.749.905.99 1.46a4.45 4.45 0 01.36 1.793 4.557 4.557 0 01-1.35 3.263 4.707 4.707 0 01-3.312 1.339 4.707 4.707 0 01-3.311-1.34c-.42-.413-.75-.9-.99-1.46a4.518 4.518 0 01-.361-1.802zm1.776 0c0 .443.067.853.203 1.23.137.376.327.696.574.96.247.265.548.474.907.629.358.154.758.23 1.202.23.444 0 .845-.076 1.202-.23a2.65 2.65 0 00.907-.63c.247-.263.438-.583.575-.96a3.64 3.64 0 00.203-1.23c0-.443-.069-.852-.203-1.229a2.808 2.808 0 00-.575-.961 2.659 2.659 0 00-.907-.627 2.995 2.995 0 00-1.202-.232c-.444 0-.844.077-1.202.232-.359.153-.66.363-.907.627a2.806 2.806 0 00-.574.961 3.593 3.593 0 00-.203 1.23zm9.269-4.381h1.665v1.35h.037c.209-.47.574-.847 1.092-1.137.518-.29 1.116-.435 1.794-.435.419 0 .823.065 1.212.195.388.13.728.33 1.018.6.288.27.52.62.694 1.044.172.426.259.927.259 1.507v5.637h-1.667v-5.175c0-.407-.054-.755-.166-1.045a1.878 1.878 0 00-.444-.701 1.66 1.66 0 00-.638-.39c-.24-.08-.49-.12-.75-.12a2.72 2.72 0 00-.961.167 2.017 2.017 0 00-.778.527 2.49 2.49 0 00-.517.915c-.124.37-.185.807-.185 1.312v4.51h-1.665v-8.76z" fill="#fff"/></g><rect x="1" y="1" width="248" height="70.192" rx="9" stroke="#fff" stroke-width="2"/><defs><clipPath id="clip0"><path fill="#fff" d="M24.929 10.125h194.296v53.03H24.929z"/></clipPath></defs></svg>