<svg width="50" height="50" fill="none" xmlns="http://www.w3.org/2000/svg"><path d="M14.575 12.816a2.47 2.47 0 00-.497 1.453v21.309c0 .497.153.956.42 1.377L26.09 24.866l-11.515-12.05zm12.586 10.941l3.75-3.94-13.237-7.652a2.23 2.23 0 00-1.837-.23l11.324 11.822zm-.001 2.219L15.723 37.873c.23.077.498.115.765.115.421 0 .842-.115 1.186-.344l13.313-7.69-3.825-3.978zm8.991-3.137l-3.864-2.22-4.055 4.247 4.17 4.323 3.787-2.18a2.381 2.381 0 001.224-2.105c-.076-.841-.497-1.606-1.262-2.065z" fill="#fff"/><rect x=".5" y=".5" width="49" height="49" rx="5.5" stroke="#fff"/></svg>