<svg width="123" height="43" fill="none" xmlns="http://www.w3.org/2000/svg"><circle cx="21.5" cy="21.5" r="21.5" fill="#C4C4C4"/><path d="M56.574 15.195c-.383 0-.707.137-.972.41-.274.266-.41.59-.41.973v14.04c0 .382.136.706.41.972.265.273.59.41.972.41h7.582c.383 0 .711-.137.985-.41.265-.266.398-.59.398-.973s-.133-.707-.398-.973a1.342 1.342 0 00-.985-.41h-6.199V16.578c0-.383-.137-.707-.41-.973a1.304 1.304 0 00-.973-.41zm19.36 2.743c1.554 0 2.886.55 3.996 1.652 1.101 1.11 1.652 2.441 1.652 3.996 0 1.555-.55 2.883-1.652 3.984-1.11 1.11-2.442 1.664-3.996 1.664-1.555 0-2.883-.554-3.985-1.664-1.11-1.101-1.664-2.43-1.664-3.984 0-1.555.555-2.887 1.664-3.996 1.102-1.102 2.43-1.652 3.985-1.652zm0 14.062c2.32 0 4.304-.824 5.953-2.473 1.64-1.64 2.46-3.62 2.46-5.941 0-2.32-.82-4.305-2.46-5.953-1.649-1.64-3.633-2.461-5.953-2.461-2.32 0-4.301.82-5.942 2.46-1.648 1.65-2.473 3.634-2.473 5.954s.825 4.3 2.473 5.941C71.632 31.176 73.613 32 75.934 32zm19.933-.047c1.375 0 2.676-.32 3.902-.96.079.288.239.527.481.714.25.195.531.293.844.293h.011c.383 0 .707-.137.973-.41.274-.266.41-.59.41-.973l.035-7.43c0-.382-.136-.71-.41-.984a1.34 1.34 0 00-.984-.41h-5.977c-.39 0-.718.137-.984.41-.274.274-.41.602-.41.985 0 .382.136.71.41.984.266.265.594.398.984.398h4.582l-.011 3.07c-.04.032-.067.055-.082.07-1.07.977-2.329 1.466-3.774 1.466-1.547 0-2.87-.547-3.973-1.64-1.093-1.102-1.64-2.427-1.64-3.974 0-1.539.547-2.859 1.64-3.96 1.102-1.094 2.426-1.641 3.973-1.641a5.46 5.46 0 013.41 1.16c.305.235.649.324 1.032.27a1.32 1.32 0 00.914-.528 1.34 1.34 0 00.281-1.02 1.37 1.37 0 00-.539-.925c-1.5-1.156-3.2-1.734-5.098-1.734-2.312 0-4.289.82-5.93 2.46-1.64 1.633-2.46 3.606-2.46 5.919 0 2.312.82 4.289 2.46 5.93 1.641 1.64 3.618 2.46 5.93 2.46zm18.387-14.015c1.555 0 2.887.55 3.996 1.652 1.102 1.11 1.652 2.441 1.652 3.996 0 1.555-.55 2.883-1.652 3.984-1.109 1.11-2.441 1.664-3.996 1.664-1.555 0-2.883-.554-3.984-1.664-1.11-1.101-1.665-2.43-1.665-3.984 0-1.555.555-2.887 1.665-3.996 1.101-1.102 2.429-1.652 3.984-1.652zm0 14.062c2.32 0 4.305-.824 5.953-2.473 1.641-1.64 2.461-3.62 2.461-5.941 0-2.32-.82-4.305-2.461-5.953-1.648-1.64-3.633-2.461-5.953-2.461-2.32 0-4.301.82-5.942 2.46-1.648 1.65-2.472 3.634-2.472 5.954s.824 4.3 2.472 5.941c1.641 1.649 3.622 2.473 5.942 2.473z" fill="#fff"/></svg>