<?xml version="1.0" standalone="no"?>
<!DOCTYPE svg PUBLIC "-//W3C//DTD SVG 20010904//EN"
 "http://www.w3.org/TR/2001/REC-SVG-20010904/DTD/svg10.dtd">
<svg version="1.0" xmlns="http://www.w3.org/2000/svg"
 width="70.000000pt" height="70.000000pt" viewBox="0 0 70.000000 70.000000"
 preserveAspectRatio="xMidYMid meet">
<metadata>
Created by potrace 1.11, written by Peter Selinger 2001-2013
</metadata>
<g transform="translate(0.000000,70.000000) scale(0.100000,-0.100000)"
fill="#000000" stroke="none">
<path d="M270 689 c0 -6 -4 -8 -8 -5 -16 10 -110 -43 -153 -86 -47 -46 -82
-88 -74 -88 3 0 -4 -22 -15 -49 -18 -46 -21 -135 -7 -206 11 -57 103 -185 133
-185 8 0 14 -4 14 -8 0 -9 61 -40 95 -49 38 -11 169 -12 181 -2 7 5 16 9 20 7
13 -3 92 40 123 68 32 28 96 114 85 114 -4 0 0 8 8 18 9 9 14 25 13 34 -2 10
0 18 4 18 5 0 9 27 10 61 2 62 -25 179 -40 179 -5 0 -9 7 -9 14 0 19 -82 106
-99 106 -7 0 -10 4 -7 8 2 4 -10 14 -27 21 -18 7 -40 17 -50 22 -10 5 -22 7
-27 4 -6 -4 -10 -2 -10 3 0 4 -36 9 -80 9 -47 1 -80 -3 -80 -8z"/>
</g>
</svg>
